<?xml version="1.0" standalone="no"?>
<!DOCTYPE svg PUBLIC "-//W3C//DTD SVG 20010904//EN"
 "http://www.w3.org/TR/2001/REC-SVG-20010904/DTD/svg10.dtd">
<svg version="1.0" xmlns="http://www.w3.org/2000/svg"
 width="209.000000pt" height="128.000000pt" viewBox="0 0 209.000000 128.000000"
 preserveAspectRatio="xMidYMid meet">

<g transform="translate(0.000000,128.000000) scale(0.100000,-0.100000)"
fill="#000000" stroke="none">
<path d="M1170 882 c0 -4 -12 -15 -27 -24 -57 -35 -103 -88 -103 -119 0 -35
17 -37 74 -9 48 23 84 72 93 124 5 32 3 36 -16 36 -11 0 -21 -4 -21 -8z"/>
<path d="M905 700 c22 -4 32 -8 22 -9 -10 0 -20 -7 -23 -15 -3 -7 -24 -19 -47
-27 -25 -8 -63 -34 -94 -65 -30 -30 -54 -47 -58 -40 -3 6 -3 -1 0 -16 3 -16 1
-28 -5 -28 -14 0 -13 -97 1 -106 19 -11 131 -8 189 5 66 16 211 82 323 149 45
27 97 55 115 62 38 15 39 20 9 48 -34 32 -91 52 -144 51 -41 -1 -43 -2 -18 -8
30 -7 30 -7 -20 -25 -54 -21 -133 -24 -162 -7 -14 8 -6 9 32 6 49 -4 49 -4 10
4 -22 5 -53 14 -68 20 -16 6 -45 10 -65 10 l-37 -2 40 -7z"/>
<path d="M1100 690 c-18 -12 -2 -12 25 0 13 6 15 9 5 9 -8 0 -22 -4 -30 -9z"/>
<path d="M1322 575 c-11 -13 -22 -22 -25 -19 -2 3 -67 -29 -143 -71 -77 -41
-150 -78 -164 -81 -14 -3 -47 -13 -75 -22 -29 -9 -85 -16 -133 -16 l-83 0 6
-25 c13 -53 64 -148 103 -192 60 -67 89 -77 167 -56 78 21 95 21 160 1 31 -10
63 -14 79 -10 43 11 111 81 148 151 l33 64 -42 36 c-23 19 -46 50 -51 68 -15
47 -22 118 -11 111 5 -3 9 -1 9 4 0 5 11 26 25 46 28 41 26 48 -3 11z m-1
-392 c-5 -10 -22 -29 -37 -43 -23 -21 -22 -18 7 17 37 46 45 53 30 26z"/>
</g>
</svg>
